<?xml version="1.0" encoding="utf-8"?>
<!-- Generator: Adobe Illustrator 25.2.1, SVG Export Plug-In . SVG Version: 6.00 Build 0)  -->
<svg version="1.1" id="Layer_1" xmlns="http://www.w3.org/2000/svg" xmlns:xlink="http://www.w3.org/1999/xlink" x="0px" y="0px"
	 width="213" height="34" viewBox="10 28 305 62" style="enable-background:new 10 28 305 62;" xml:space="preserve">
<style type="text/css">
	.st0{fill:url(#SVGID_1_);}
	.st1{fill:#F47621;}
	.st2{fill:url(#SVGID_2_);}
	.st3{fill:#F15B22;}
	.st4{fill:#FFFFFF;}
	.st5{fill:#F89A35;}
	.st6{fill:url(#SVGID_3_);}
	.st7{fill:#F99F38;}
	.st8{fill:#F05323;}
	.st9{fill:url(#SVGID_4_);}
	.st10{fill:url(#SVGID_5_);}
	.st11{fill:url(#SVGID_6_);}
	.st12{fill:url(#SVGID_7_);}
	.st13{fill:url(#SVGID_8_);}
	.st14{fill:url(#SVGID_9_);}
	.st15{fill:url(#SVGID_10_);}
	.st16{stroke:#FFFFFF;stroke-width:4;stroke-miterlimit:10;}
	.st17{stroke:#FFFFFF;stroke-width:4.1276;stroke-miterlimit:10;}
	.st18{fill:none;}
	.st19{fill:#F15D43;}
	.st20{fill:#FAA342;}
	.st21{fill:none;stroke:#F15D43;stroke-width:10;stroke-miterlimit:10;}
	.st22{fill:none;stroke:#F68E43;stroke-width:10;stroke-miterlimit:10;}
	.st23{fill:#F4A349;}
</style>
<g fill="white">
	<g>
		<path d="M112.12,72.8V42.16h10.35c2.4,0,4.37,0.43,5.9,1.29s2.67,2.03,3.4,3.49c0.74,1.47,1.11,3.1,1.11,4.91s-0.37,3.45-1.1,4.92
			c-0.73,1.48-1.86,2.65-3.39,3.52s-3.48,1.31-5.86,1.31h-7.42v-3.29h7.3c1.65,0,2.97-0.28,3.96-0.85c1-0.57,1.72-1.34,2.18-2.31
			c0.45-0.97,0.68-2.07,0.68-3.3s-0.23-2.32-0.68-3.29c-0.45-0.97-1.18-1.73-2.19-2.28c-1.01-0.55-2.34-0.83-4.01-0.83h-6.52V72.8
			H112.12z"/>
		<path d="M145.61,73.27c-2.07,0-3.89-0.49-5.45-1.48s-2.78-2.37-3.65-4.14c-0.87-1.78-1.31-3.85-1.31-6.22
			c0-2.39,0.44-4.48,1.31-6.27s2.09-3.17,3.65-4.16s3.38-1.48,5.45-1.48s3.89,0.49,5.45,1.48c1.56,0.99,2.78,2.37,3.65,4.16
			c0.87,1.79,1.31,3.88,1.31,6.27c0,2.37-0.44,4.45-1.31,6.22c-0.87,1.77-2.09,3.16-3.65,4.14
			C149.51,72.78,147.69,73.27,145.61,73.27z M145.61,70.1c1.58,0,2.87-0.4,3.89-1.21s1.77-1.87,2.26-3.19s0.73-2.74,0.73-4.28
			c0-1.54-0.24-2.97-0.73-4.29s-1.24-2.4-2.26-3.22s-2.31-1.23-3.89-1.23s-2.87,0.41-3.89,1.23c-1.02,0.82-1.77,1.89-2.26,3.22
			c-0.49,1.33-0.73,2.76-0.73,4.29c0,1.54,0.24,2.96,0.73,4.28c0.49,1.32,1.24,2.38,2.26,3.19C142.74,69.7,144.04,70.1,145.61,70.1z
			"/>
		<path d="M160.78,72.8V42.16h3.53V72.8H160.78z M164.07,64.42l-0.06-4.37h0.72l10.05-10.23h4.37l-10.71,10.83h-0.3L164.07,64.42z
			 M175.38,72.8l-8.98-11.37l2.51-2.45l10.95,13.82H175.38z"/>
		<path d="M197.75,63.4V49.82h3.53V72.8h-3.53v-3.89h-0.24c-0.54,1.17-1.38,2.16-2.51,2.97c-1.14,0.81-2.57,1.22-4.31,1.22
			c-1.44,0-2.71-0.32-3.83-0.95c-1.12-0.63-1.99-1.59-2.63-2.87s-0.96-2.9-0.96-4.85v-14.6h3.53v14.36c0,1.68,0.47,3.01,1.41,4.01
			s2.15,1.5,3.61,1.5c0.88,0,1.77-0.22,2.69-0.67c0.91-0.45,1.68-1.14,2.3-2.06C197.44,66.02,197.75,64.84,197.75,63.4z"/>
		<path d="M219.23,72.8V42.16h3.71V69.5h14.24v3.29H219.23z"/>
		<path d="M247.1,73.33c-1.46,0-2.78-0.28-3.96-0.83c-1.19-0.55-2.13-1.36-2.83-2.41c-0.7-1.05-1.05-2.33-1.05-3.82
			c0-1.32,0.26-2.39,0.78-3.21c0.52-0.82,1.21-1.47,2.08-1.94s1.83-0.82,2.88-1.05s2.11-0.42,3.18-0.56c1.4-0.18,2.53-0.32,3.4-0.41
			s1.51-0.26,1.91-0.49c0.4-0.23,0.61-0.63,0.61-1.2V57.3c0-1.48-0.4-2.62-1.2-3.44c-0.8-0.82-2.02-1.23-3.64-1.23
			c-1.69,0-3.01,0.37-3.96,1.11c-0.96,0.74-1.63,1.53-2.02,2.36l-3.35-1.2c0.6-1.4,1.4-2.49,2.4-3.27c1-0.78,2.1-1.33,3.29-1.65
			c1.19-0.31,2.37-0.47,3.52-0.47c0.74,0,1.59,0.09,2.55,0.26c0.96,0.17,1.9,0.53,2.8,1.07c0.9,0.54,1.65,1.35,2.25,2.44
			s0.9,2.54,0.9,4.37V72.8h-3.53v-3.11h-0.18c-0.24,0.5-0.64,1.03-1.2,1.6c-0.56,0.57-1.3,1.05-2.23,1.45
			C249.57,73.13,248.44,73.33,247.1,73.33z M247.64,70.16c1.4,0,2.58-0.27,3.54-0.82c0.96-0.55,1.69-1.26,2.18-2.12
			c0.49-0.87,0.74-1.78,0.74-2.74v-3.23c-0.15,0.18-0.48,0.34-0.98,0.49c-0.5,0.15-1.08,0.27-1.74,0.37
			c-0.65,0.11-1.29,0.2-1.9,0.27c-0.61,0.08-1.11,0.14-1.49,0.19c-0.92,0.12-1.77,0.31-2.57,0.58c-0.79,0.26-1.43,0.66-1.92,1.18
			c-0.48,0.52-0.73,1.23-0.73,2.13c0,1.23,0.46,2.15,1.37,2.78S246.23,70.16,247.64,70.16z"/>
		<path d="M264.15,72.8V42.16h3.53v11.31h0.3c0.26-0.4,0.62-0.91,1.08-1.53c0.46-0.62,1.13-1.18,2-1.67
			c0.87-0.49,2.06-0.74,3.55-0.74c1.93,0,3.64,0.48,5.12,1.45c1.48,0.97,2.63,2.34,3.46,4.11c0.83,1.77,1.24,3.87,1.24,6.28
			c0,2.43-0.41,4.54-1.24,6.32c-0.83,1.78-1.97,3.16-3.44,4.13c-1.47,0.97-3.16,1.46-5.07,1.46c-1.48,0-2.66-0.25-3.54-0.74
			c-0.89-0.49-1.57-1.06-2.05-1.69c-0.48-0.63-0.85-1.16-1.11-1.58h-0.42v3.53H264.15z M267.62,61.31c0,1.74,0.25,3.26,0.76,4.58
			c0.51,1.32,1.25,2.35,2.23,3.1c0.98,0.74,2.17,1.11,3.59,1.11c1.48,0,2.71-0.39,3.7-1.17c0.99-0.78,1.74-1.84,2.24-3.17
			c0.5-1.33,0.76-2.81,0.76-4.45c0-1.62-0.25-3.07-0.74-4.38c-0.49-1.3-1.24-2.33-2.23-3.1c-0.99-0.76-2.24-1.14-3.73-1.14
			c-1.44,0-2.64,0.36-3.62,1.08c-0.98,0.72-1.72,1.73-2.21,3.02C267.87,58.09,267.62,59.59,267.62,61.31z"/>
		<path d="M305.68,54.96l-3.17,0.9c-0.2-0.53-0.49-1.04-0.88-1.55s-0.9-0.92-1.56-1.25s-1.5-0.49-2.53-0.49
			c-1.41,0-2.58,0.32-3.51,0.96c-0.93,0.64-1.4,1.46-1.4,2.45c0,0.88,0.32,1.57,0.96,2.08s1.64,0.93,2.99,1.27l3.41,0.84
			c2.05,0.5,3.59,1.26,4.59,2.28c1.01,1.02,1.51,2.34,1.51,3.94c0,1.32-0.38,2.49-1.13,3.53s-1.8,1.85-3.15,2.45s-2.91,0.9-4.7,0.9
			c-2.34,0-4.28-0.51-5.82-1.53c-1.54-1.02-2.51-2.5-2.92-4.46l3.35-0.84c0.32,1.24,0.93,2.16,1.82,2.78
			c0.89,0.62,2.06,0.93,3.51,0.93c1.65,0,2.95-0.35,3.93-1.05c0.97-0.7,1.46-1.55,1.46-2.54c0-0.8-0.28-1.47-0.84-2.01
			c-0.56-0.54-1.42-0.95-2.57-1.22l-3.83-0.9c-2.1-0.5-3.65-1.27-4.63-2.33c-0.98-1.05-1.47-2.37-1.47-3.96
			c0-1.3,0.37-2.44,1.1-3.44c0.73-1,1.74-1.78,3.01-2.35c1.27-0.57,2.71-0.85,4.33-0.85c2.27,0,4.06,0.5,5.36,1.5
			C304.2,52.01,305.13,53.33,305.68,54.96z"/>
	</g>
</g>
<g>
	<path class="st18" d="M59.13,58.59c0-6.76-3.4-12.74-8.56-16.34C45.4,45.85,42,51.83,42,58.59c0,6.76,3.4,12.74,8.56,16.34
		C55.74,71.33,59.13,65.36,59.13,58.59z"/>
	<path class="st18" d="M61.54,78.48c0.13,0,0.25,0.02,0.38,0.02c10.98,0,19.91-8.93,19.91-19.91c0-10.98-8.93-19.91-19.91-19.91
		c-0.13,0-0.25,0.02-0.38,0.02c4.72,5.29,7.6,12.26,7.6,19.89C69.13,66.23,66.26,73.19,61.54,78.48z"/>
	<path class="st18" d="M39.6,38.7c-0.13,0-0.25-0.02-0.38-0.02c-10.98,0-19.91,8.93-19.91,19.91c0,10.98,8.93,19.91,19.91,19.91
		c0.13,0,0.25-0.02,0.38-0.02C34.88,73.19,32,66.23,32,58.59C32,50.96,34.88,43.99,39.6,38.7z"/>
	<path class="st23" d="M61.91,28.68c-4.01,0-7.84,0.8-11.34,2.24c-4.23,1.74-7.97,4.42-10.97,7.78C34.88,43.99,32,50.96,32,58.59
		c0,7.63,2.88,14.6,7.6,19.89c4.07-0.08,7.84-1.37,10.97-3.55C45.4,71.33,42,65.36,42,58.59c0-6.76,3.4-12.74,8.56-16.34
		c3.12-2.18,6.9-3.47,10.97-3.55c0.13,0,0.25-0.02,0.38-0.02c10.98,0,19.91,8.93,19.91,19.91c0,10.98-8.93,19.91-19.91,19.91
		c-0.13,0-0.25-0.02-0.38-0.02c-3,3.36-6.74,6.04-10.97,7.78c3.5,1.44,7.33,2.24,11.34,2.24c16.49,0,29.91-13.42,29.91-29.91
		S78.41,28.68,61.91,28.68z"/>
	<path class="st19" d="M61.54,38.7c-4.07,0.08-7.84,1.37-10.97,3.55c5.17,3.6,8.56,9.58,8.56,16.34c0,6.76-3.4,12.74-8.56,16.34
		c-3.12,2.18-6.9,3.47-10.97,3.55c-0.13,0-0.25,0.02-0.38,0.02c-10.98,0-19.91-8.93-19.91-19.91c0-10.98,8.93-19.91,19.91-19.91
		c0.13,0,0.25,0.02,0.38,0.02c3-3.36,6.74-6.04,10.97-7.78c-3.5-1.44-7.33-2.24-11.34-2.24c-16.49,0-29.91,13.42-29.91,29.91
		S22.73,88.5,39.22,88.5c4.01,0,7.84-0.8,11.34-2.24c4.23-1.74,7.97-4.42,10.97-7.78c4.72-5.29,7.6-12.26,7.6-19.89
		C69.13,50.96,66.26,43.99,61.54,38.7z"/>
</g>
</svg>
