<svg width="32" height="32" viewBox="0 0 32 32" fill="none" xmlns="http://www.w3.org/2000/svg">
<style>
  rect.bg { fill: white; }
  path.logo { fill: black; }
  @media (prefers-color-scheme: dark) {
    rect.bg { fill: black; }
    path.logo { fill: white; }
  }
</style>
<rect class="bg" width="32" height="32"/>
<path class="logo" d="M32 32H0V0H32V32ZM6.85625 10.3738H16.9455C16.9455 11.0035 16.4691 11.5165 15.8842 11.5165H6.85625C6.85625 12.3286 7.014 13.101 7.29983 13.8014H14.8222C14.8222 14.4311 14.3457 14.9436 13.7608 14.9436H7.91753C8.88677 16.3312 10.429 17.2292 12.1668 17.2292H15.3516C15.6456 17.2292 15.8842 17.4853 15.8842 17.8014C15.8842 18.1175 15.6456 18.3738 15.3516 18.3738H12.1668L8.61927 24.0889H15.6191C18.5577 24.0889 21.0529 22.0312 21.9243 19.184L23.1207 15.2813C23.5081 14.0142 24.2168 12.9035 25.1438 12.0611C24.7702 11.391 24.0918 10.9436 23.3156 10.9436C22.6026 10.9436 21.9703 11.3216 21.5847 11.904L18.9693 15.8491C18.874 15.9936 18.7155 16.0889 18.537 16.0889C18.2429 16.0889 18.005 15.8326 18.005 15.5165C18.005 15.3985 18.0373 15.2888 18.0934 15.1986L20.3026 11.6415C20.7374 10.9404 20.7783 10.0387 20.4085 9.29601C20.0394 8.55269 19.3201 8.0889 18.537 8.08889H6.85625V10.3738ZM23.3156 11.6611C23.5365 11.6611 23.7125 11.8535 23.7125 12.0889C23.715 12.3236 23.5365 12.5161 23.3156 12.5161C23.096 12.5161 22.9181 12.3249 22.9181 12.0889C22.9181 11.8529 23.096 11.6611 23.3156 11.6611Z"/>
</svg>
