<?xml version="1.0" encoding="utf-8"?>
<!-- Generator: Adobe Illustrator 25.2.1, SVG Export Plug-In . SVG Version: 6.00 Build 0)  -->
<svg version="1.1" id="Layer_1" xmlns="http://www.w3.org/2000/svg" xmlns:xlink="http://www.w3.org/1999/xlink" x="0px" y="0px"
	 viewBox="7 26 90 66" style="enable-background:new 7 26 90 66;" xml:space="preserve">
<style type="text/css">
	.st0{fill:url(#SVGID_1_);}
	.st1{fill:#F47621;}
	.st2{fill:url(#SVGID_2_);}
	.st3{fill:#F15B22;}
	.st4{fill:#FFFFFF;}
	.st5{fill:#F89A35;}
	.st6{fill:url(#SVGID_3_);}
	.st7{fill:#F99F38;}
	.st8{fill:#F05323;}
	.st9{fill:url(#SVGID_4_);}
	.st10{fill:url(#SVGID_5_);}
	.st11{fill:url(#SVGID_6_);}
	.st12{fill:url(#SVGID_7_);}
	.st13{fill:url(#SVGID_8_);}
	.st14{fill:url(#SVGID_9_);}
	.st15{fill:url(#SVGID_10_);}
	.st16{stroke:#FFFFFF;stroke-width:4;stroke-miterlimit:10;}
	.st17{stroke:#FFFFFF;stroke-width:4.1276;stroke-miterlimit:10;}
	.st18{fill:none;}
	.st19{fill:#F15D43;}
	.st20{fill:#FAA342;}
	.st21{fill:none;stroke:#F15D43;stroke-width:10;stroke-miterlimit:10;}
	.st22{fill:none;stroke:#F68E43;stroke-width:10;stroke-miterlimit:10;}
	.st23{fill:#F4A349;}
</style>
<g>
	<path class="st18" d="M59.13,58.59c0-6.76-3.4-12.74-8.56-16.34C45.4,45.85,42,51.83,42,58.59c0,6.76,3.4,12.74,8.56,16.34
		C55.74,71.33,59.13,65.36,59.13,58.59z"/>
	<path class="st18" d="M61.54,78.48c0.13,0,0.25,0.02,0.38,0.02c10.98,0,19.91-8.93,19.91-19.91c0-10.98-8.93-19.91-19.91-19.91
		c-0.13,0-0.25,0.02-0.38,0.02c4.72,5.29,7.6,12.26,7.6,19.89C69.13,66.23,66.26,73.19,61.54,78.48z"/>
	<path class="st18" d="M39.6,38.7c-0.13,0-0.25-0.02-0.38-0.02c-10.98,0-19.91,8.93-19.91,19.91c0,10.98,8.93,19.91,19.91,19.91
		c0.13,0,0.25-0.02,0.38-0.02C34.88,73.19,32,66.23,32,58.59C32,50.96,34.88,43.99,39.6,38.7z"/>
	<path class="st23" d="M61.91,28.68c-4.01,0-7.84,0.8-11.34,2.24c-4.23,1.74-7.97,4.42-10.97,7.78C34.88,43.99,32,50.96,32,58.59
		c0,7.63,2.88,14.6,7.6,19.89c4.07-0.08,7.84-1.37,10.97-3.55C45.4,71.33,42,65.36,42,58.59c0-6.76,3.4-12.74,8.56-16.34
		c3.12-2.18,6.9-3.47,10.97-3.55c0.13,0,0.25-0.02,0.38-0.02c10.98,0,19.91,8.93,19.91,19.91c0,10.98-8.93,19.91-19.91,19.91
		c-0.13,0-0.25-0.02-0.38-0.02c-3,3.36-6.74,6.04-10.97,7.78c3.5,1.44,7.33,2.24,11.34,2.24c16.49,0,29.91-13.42,29.91-29.91
		S78.41,28.68,61.91,28.68z"/>
	<path class="st19" d="M61.54,38.7c-4.07,0.08-7.84,1.37-10.97,3.55c5.17,3.6,8.56,9.58,8.56,16.34c0,6.76-3.4,12.74-8.56,16.34
		c-3.12,2.18-6.9,3.47-10.97,3.55c-0.13,0-0.25,0.02-0.38,0.02c-10.98,0-19.91-8.93-19.91-19.91c0-10.98,8.93-19.91,19.91-19.91
		c0.13,0,0.25,0.02,0.38,0.02c3-3.36,6.74-6.04,10.97-7.78c-3.5-1.44-7.33-2.24-11.34-2.24c-16.49,0-29.91,13.42-29.91,29.91
		S22.73,88.5,39.22,88.5c4.01,0,7.84-0.8,11.34-2.24c4.23-1.74,7.97-4.42,10.97-7.78c4.72-5.29,7.6-12.26,7.6-19.89
		C69.13,50.96,66.26,43.99,61.54,38.7z"/>
</g>
</svg>
